<?xml version="1.0" standalone="no"?>
<!DOCTYPE svg PUBLIC "-//W3C//DTD SVG 20010904//EN"
 "http://www.w3.org/TR/2001/REC-SVG-20010904/DTD/svg10.dtd">
<svg version="1.0" xmlns="http://www.w3.org/2000/svg"
 width="253.000000pt" height="199.000000pt" viewBox="0 0 253.000000 199.000000"
 preserveAspectRatio="xMidYMid meet">

<g transform="translate(0.000000,199.000000) scale(0.100000,-0.100000)"
fill="#000000" stroke="none">
<path d="M1662 1972 c-33 -5 -50 -46 -30 -69 38 -43 75 -210 57 -255 -11 -28
-70 -58 -114 -58 -103 0 -115 -108 -13 -125 70 -12 92 -29 121 -93 25 -54 27
-70 29 -223 2 -134 0 -178 -16 -239 -25 -101 -60 -163 -115 -205 -71 -54 -95
-97 -94 -162 2 -91 26 -106 200 -128 62 -8 130 -22 150 -32 51 -24 129 -105
190 -199 56 -86 79 -114 91 -114 46 0 67 98 37 178 -12 30 -39 67 -77 103 -63
62 -72 92 -43 148 18 37 31 41 121 41 85 0 144 -19 189 -61 38 -36 69 -37 91
-4 14 22 15 32 5 64 -17 58 -38 78 -131 124 -123 61 -123 63 38 223 70 71 136
146 146 167 35 77 -8 177 -63 147 -15 -8 -21 -21 -21 -45 0 -73 -117 -158
-216 -157 -58 0 -95 19 -112 58 -30 64 -7 130 76 217 137 146 192 237 192 316
0 48 -38 120 -66 127 -38 10 -49 -9 -46 -75 3 -51 0 -62 -23 -90 -34 -40 -67
-40 -106 -2 -22 23 -29 39 -29 69 0 50 22 113 61 174 35 55 33 80 -10 98 -53
22 -99 -23 -136 -130 -28 -82 -48 -110 -80 -110 -35 0 -62 39 -70 102 -7 65
-42 137 -87 185 -31 32 -56 41 -96 35z m174 -400 c6 -4 21 -26 32 -49 26 -50
64 -66 149 -61 l58 3 -1 -50 c0 -41 -8 -61 -41 -110 -72 -108 -78 -123 -78
-210 1 -133 49 -199 146 -201 27 0 54 -5 60 -11 16 -16 0 -41 -34 -53 -66 -22
-98 -80 -61 -110 27 -23 36 -48 24 -70 -9 -17 -21 -20 -70 -20 -71 0 -93 -17
-110 -82 -17 -66 -17 -67 -45 -74 -31 -8 -55 10 -55 42 0 40 -68 58 -124 33
-20 -9 -29 -9 -41 1 -25 21 -18 41 38 99 120 126 141 200 141 506 l1 220 -27
45 c-14 25 -36 53 -47 62 -42 35 -14 98 43 98 17 0 36 -4 42 -8z"/>
<path d="M765 1949 c-45 -22 -104 -166 -105 -255 0 -42 -32 -74 -74 -74 -45 0
-79 29 -106 92 -12 29 -33 67 -46 85 -46 62 -145 66 -160 7 -6 -22 2 -34 49
-82 77 -78 97 -140 61 -190 -12 -18 -25 -22 -65 -22 -45 0 -51 3 -69 33 -11
17 -20 42 -20 55 0 37 -18 62 -45 62 -35 0 -55 -35 -55 -100 0 -46 6 -65 33
-107 32 -52 122 -150 193 -213 68 -59 97 -109 102 -170 4 -50 1 -58 -23 -83
-35 -35 -91 -36 -160 -3 -55 26 -76 44 -148 129 -27 31 -55 57 -63 57 -26 0
-54 -38 -54 -75 0 -83 59 -155 180 -222 41 -23 85 -52 97 -65 59 -63 48 -124
-27 -146 -104 -31 -148 -59 -176 -114 -20 -38 -3 -85 32 -94 23 -6 41 -1 179
51 91 35 180 32 221 -5 43 -41 29 -77 -68 -178 -101 -105 -134 -185 -92 -226
29 -30 58 -19 120 45 76 78 181 157 287 214 66 35 104 49 171 59 47 8 90 17
96 21 31 19 52 113 36 161 -3 12 -40 51 -81 88 -60 53 -81 82 -109 139 -50
107 -70 215 -71 387 0 132 2 148 22 180 27 43 54 60 118 75 40 9 52 17 59 38
14 39 -16 73 -89 103 -87 35 -88 37 -82 188 4 116 3 130 -14 147 -21 21 -25
22 -54 8z m-41 -419 c43 -16 43 -51 0 -120 -33 -53 -38 -70 -42 -138 -7 -118
69 -536 106 -589 10 -13 43 -37 75 -54 94 -49 73 -89 -48 -89 -54 0 -67 -3
-71 -18 -11 -35 -22 -47 -44 -50 -28 -4 -40 12 -40 56 0 77 -52 118 -114 92
-17 -7 -49 -14 -71 -14 -34 -1 -40 2 -43 22 -2 15 7 32 27 51 36 34 40 72 11
101 -11 11 -31 20 -44 20 -13 0 -27 7 -30 16 -12 31 4 52 49 63 79 20 135 101
135 194 0 48 -31 111 -80 163 -77 81 -88 130 -44 183 19 23 34 31 59 31 47 0
82 15 127 55 42 38 45 39 82 25z"/>
<path d="M1241 695 c-39 -20 -50 -53 -51 -143 0 -75 2 -85 24 -107 45 -45 108
-41 141 9 47 71 19 228 -42 241 -15 4 -33 8 -39 10 -5 1 -21 -3 -33 -10z"/>
<path d="M1125 339 c-168 -25 -310 -75 -439 -157 -81 -51 -105 -77 -106 -112
0 -34 17 -50 53 -50 36 0 61 13 114 60 55 48 158 97 257 122 69 18 102 20 265
15 166 -4 195 -7 267 -31 127 -41 222 -83 278 -123 89 -64 164 -35 125 49 -14
31 -38 48 -164 114 -192 102 -435 144 -650 113z"/>
</g>
</svg>
